<mxfile host="app.diagrams.net" modified="2024-03-04T09:45:28.146Z" agent="Mozilla/5.0 (Macintosh; Intel Mac OS X 12_6_0) AppleWebKit/537.36 (KHTML, like Gecko) Chrome/89.0.4389.82 Safari/537.36" version="24.0.1" etag="QwJiqx0FfUcsjOCtx0Hs" type="github">
  <diagram name="第 1 页" id="pKDJAQyhc4m3pnS3yhyf">
    <mxGraphModel>
      <root>
        <mxCell id="0" />
        <mxCell id="1" parent="0" />
      </root>
    </mxGraphModel>
  </diagram>
</mxfile>
